<mxfile host="app.diagrams.net" modified="2023-11-15T14:23:12.742Z" agent="Mozilla/5.0 (Windows NT 10.0; Win64; x64) AppleWebKit/537.36 (KHTML, like Gecko) Chrome/119.0.0.0 Safari/537.36" etag="YQnJJJJJJJJJJJJJJJJJ" version="21.8.2" type="device">
  <diagram name="Page-1" id="c7558073-3199-34d8-9f00-42111426c3f3">
    <mxGraphModel dx="1050" dy="541" grid="1" gridSize="10" guides="1" tooltips="1" connect="1" arrows="1" fold="1" page="1" pageScale="1" pageWidth="826" pageHeight="1169" background="none" math="0" shadow="0">
      <root>
        <mxCell id="0" />
        <mxCell id="1" parent="0" />
        <mxCell id="2" value="INVENTORY&#xa;MANAGER" style="whiteSpace=wrap;align=center;verticalAlign=middle;fontStyle=1;strokeWidth=3;fillColor=#FFFFFF;fontSize=14;" parent="1" vertex="1">
          <mxGeometry x="40" y="120" width="120" height="60" as="geometry" />
        </mxCell>
        <mxCell id="3" value="SALES&#xa;MANAGER" style="whiteSpace=wrap;align=center;verticalAlign=middle;fontStyle=1;strokeWidth=3;fillColor=#FFFFFF;fontSize=14;" parent="1" vertex="1">
          <mxGeometry x="640" y="120" width="120" height="60" as="geometry" />
        </mxCell>
        <mxCell id="4" value="PRODUCT&#xa;MANAGEMENT" style="ellipse;whiteSpace=wrap;html=1;aspect=fixed;fontSize=14;fontStyle=1;strokeWidth=3;fillColor=#FFFFFF" parent="1" vertex="1">
          <mxGeometry x="140" y="240" width="120" height="120" as="geometry" />
        </mxCell>
        <mxCell id="5" value="INVENTORY&#xa;TRACKING" style="ellipse;whiteSpace=wrap;html=1;aspect=fixed;fontSize=14;fontStyle=1;strokeWidth=3;fillColor=#FFFFFF" parent="1" vertex="1">
          <mxGeometry x="340" y="240" width="120" height="120" as="geometry" />
        </mxCell>
        <mxCell id="6" value="SALES&#xa;PROCESSING" style="ellipse;whiteSpace=wrap;html=1;aspect=fixed;fontSize=14;fontStyle=1;strokeWidth=3;fillColor=#FFFFFF" parent="1" vertex="1">
          <mxGeometry x="540" y="240" width="120" height="120" as="geometry" />
        </mxCell>
        <mxCell id="7" value="PRODUCT&#xa;DATABASE" style="shape=partialRectangle;whiteSpace=wrap;html=1;left=0;right=0;fillColor=none;fontSize=14;fontStyle=1;strokeWidth=3;" parent="1" vertex="1">
          <mxGeometry x="140" y="400" width="120" height="40" as="geometry" />
        </mxCell>
        <mxCell id="8" value="INVENTORY&#xa;DATABASE" style="shape=partialRectangle;whiteSpace=wrap;html=1;left=0;right=0;fillColor=none;fontSize=14;fontStyle=1;strokeWidth=3;" parent="1" vertex="1">
          <mxGeometry x="340" y="400" width="120" height="40" as="geometry" />
        </mxCell>
        <mxCell id="9" value="SALES&#xa;DATABASE" style="shape=partialRectangle;whiteSpace=wrap;html=1;left=0;right=0;fillColor=none;fontSize=14;fontStyle=1;strokeWidth=3;" parent="1" vertex="1">
          <mxGeometry x="540" y="400" width="120" height="40" as="geometry" />
        </mxCell>
        <mxCell id="10" value="INVENTORY&#xa;ANALYTICS" style="ellipse;whiteSpace=wrap;html=1;aspect=fixed;fontSize=14;fontStyle=1;strokeWidth=3;fillColor=#FFFFFF" parent="1" vertex="1">
          <mxGeometry x="340" y="480" width="120" height="120" as="geometry" />
        </mxCell>
        <mxCell id="11" value="CUSTOMER&#xa;MANAGEMENT" style="ellipse;whiteSpace=wrap;html=1;aspect=fixed;fontSize=14;fontStyle=1;strokeWidth=3;fillColor=#FFFFFF" parent="1" vertex="1">
          <mxGeometry x="540" y="480" width="120" height="120" as="geometry" />
        </mxCell>
        <mxCell id="12" value="REPORTS&#xa;DATABASE" style="shape=partialRectangle;whiteSpace=wrap;html=1;left=0;right=0;fillColor=none;fontSize=14;fontStyle=1;strokeWidth=3;" parent="1" vertex="1">
          <mxGeometry x="340" y="640" width="120" height="40" as="geometry" />
        </mxCell>
        <mxCell id="13" value="CUSTOMER&#xa;DATABASE" style="shape=partialRectangle;whiteSpace=wrap;html=1;left=0;right=0;fillColor=none;fontSize=14;fontStyle=1;strokeWidth=3;" parent="1" vertex="1">
          <mxGeometry x="540" y="640" width="120" height="40" as="geometry" />
        </mxCell>
        <mxCell id="14" value="INVOICE&#xa;GENERATION" style="ellipse;whiteSpace=wrap;html=1;aspect=fixed;fontSize=14;fontStyle=1;strokeWidth=3;fillColor=#FFFFFF" parent="1" vertex="1">
          <mxGeometry x="540" y="720" width="120" height="120" as="geometry" />
        </mxCell>
        <mxCell id="15" value="INVOICE&#xa;DATABASE" style="shape=partialRectangle;whiteSpace=wrap;html=1;left=0;right=0;fillColor=none;fontSize=14;fontStyle=1;strokeWidth=3;" parent="1" vertex="1">
          <mxGeometry x="540" y="880" width="120" height="40" as="geometry" />
        </mxCell>
        <mxCell id="16" value="" style="edgeStyle=elbowEdgeStyle;elbow=vertical;exitX=0.5;exitY=1;exitPerimeter=0;entryX=0.5;entryY=0;entryPerimeter=0;fontStyle=1;strokeColor=#000000;strokeWidth=1;html=1;" parent="1" source="2" target="4" edge="1">
          <mxGeometry width="100" height="100" as="geometry">
            <mxPoint x="100" y="180" as="sourcePoint" />
            <mxPoint x="200" y="80" as="targetPoint" />
            <Array as="points">
              <mxPoint x="100" y="200" />
            </Array>
          </mxGeometry>
        </mxCell>
        <mxCell id="17" value="" style="edgeStyle=elbowEdgeStyle;elbow=vertical;exitX=0.5;exitY=1;exitPerimeter=0;entryX=0.5;entryY=0;entryPerimeter=0;fontStyle=1;strokeColor=#000000;strokeWidth=1;html=1;" parent="1" source="2" target="5" edge="1">
          <mxGeometry width="100" height="100" as="geometry">
            <mxPoint x="100" y="180" as="sourcePoint" />
            <mxPoint x="200" y="240" as="targetPoint" />
            <Array as="points">
              <mxPoint x="240" y="200" />
            </Array>
          </mxGeometry>
        </mxCell>
        <mxCell id="18" value="" style="edgeStyle=elbowEdgeStyle;elbow=vertical;exitX=0.5;exitY=1;exitPerimeter=0;entryX=0.5;entryY=0;entryPerimeter=0;fontStyle=1;strokeColor=#000000;strokeWidth=1;html=1;" parent="1" source="3" target="6" edge="1">
          <mxGeometry width="100" height="100" as="geometry">
            <mxPoint x="700" y="180" as="sourcePoint" />
            <mxPoint x="800" y="80" as="targetPoint" />
          </mxGeometry>
        </mxCell>
        <mxCell id="19" value="" style="edgeStyle=elbowEdgeStyle;elbow=vertical;exitX=0.5;exitY=1;exitPerimeter=0;entryX=0.5;entryY=0;entryPerimeter=0;fontStyle=1;strokeColor=#000000;strokeWidth=1;html=1;" parent="1" source="4" target="7" edge="1">
          <mxGeometry width="100" height="100" as="geometry">
            <mxPoint x="200" y="360" as="sourcePoint" />
            <mxPoint x="300" y="260" as="targetPoint" />
          </mxGeometry>
        </mxCell>
        <mxCell id="20" value="" style="edgeStyle=elbowEdgeStyle;elbow=vertical;exitX=0.5;exitY=1;exitPerimeter=0;entryX=0.5;entryY=0;entryPerimeter=0;fontStyle=1;strokeColor=#000000;strokeWidth=1;html=1;" parent="1" source="5" target="8" edge="1">
          <mxGeometry width="100" height="100" as="geometry">
            <mxPoint x="400" y="360" as="sourcePoint" />
            <mxPoint x="500" y="260" as="targetPoint" />
          </mxGeometry>
        </mxCell>
        <mxCell id="21" value="" style="edgeStyle=elbowEdgeStyle;elbow=vertical;exitX=0.5;exitY=1;exitPerimeter=0;entryX=0.5;entryY=0;entryPerimeter=0;fontStyle=1;strokeColor=#000000;strokeWidth=1;html=1;" parent="1" source="6" target="9" edge="1">
          <mxGeometry width="100" height="100" as="geometry">
            <mxPoint x="600" y="360" as="sourcePoint" />
            <mxPoint x="700" y="260" as="targetPoint" />
          </mxGeometry>
        </mxCell>
        <mxCell id="22" value="" style="edgeStyle=elbowEdgeStyle;elbow=horizontal;exitX=1;exitY=0.5;exitPerimeter=0;entryX=0;entryY=0.5;entryPerimeter=0;fontStyle=1;strokeColor=#000000;strokeWidth=1;html=1;" parent="1" source="4" target="5" edge="1">
          <mxGeometry width="100" height="100" as="geometry">
            <mxPoint x="260" y="300" as="sourcePoint" />
            <mxPoint x="360" y="200" as="targetPoint" />
          </mxGeometry>
        </mxCell>
        <mxCell id="23" value="" style="edgeStyle=elbowEdgeStyle;elbow=horizontal;exitX=1;exitY=0.5;exitPerimeter=0;entryX=0;entryY=0.5;entryPerimeter=0;fontStyle=1;strokeColor=#000000;strokeWidth=1;html=1;" parent="1" source="5" target="6" edge="1">
          <mxGeometry width="100" height="100" as="geometry">
            <mxPoint x="460" y="300" as="sourcePoint" />
            <mxPoint x="560" y="200" as="targetPoint" />
          </mxGeometry>
        </mxCell>
        <mxCell id="24" value="" style="edgeStyle=elbowEdgeStyle;elbow=vertical;exitX=0.5;exitY=1;exitPerimeter=0;entryX=0.5;entryY=0;entryPerimeter=0;fontStyle=1;strokeColor=#000000;strokeWidth=1;html=1;" parent="1" source="10" target="12" edge="1">
          <mxGeometry width="100" height="100" as="geometry">
            <mxPoint x="400" y="600" as="sourcePoint" />
            <mxPoint x="500" y="500" as="targetPoint" />
          </mxGeometry>
        </mxCell>
        <mxCell id="25" value="" style="edgeStyle=elbowEdgeStyle;elbow=vertical;exitX=0.5;exitY=1;exitPerimeter=0;entryX=0.5;entryY=0;entryPerimeter=0;fontStyle=1;strokeColor=#000000;strokeWidth=1;html=1;" parent="1" source="11" target="13" edge="1">
          <mxGeometry width="100" height="100" as="geometry">
            <mxPoint x="600" y="600" as="sourcePoint" />
            <mxPoint x="700" y="500" as="targetPoint" />
          </mxGeometry>
        </mxCell>
        <mxCell id="26" value="" style="edgeStyle=elbowEdgeStyle;elbow=vertical;exitX=0.5;exitY=1;exitPerimeter=0;entryX=0.5;entryY=0;entryPerimeter=0;fontStyle=1;strokeColor=#000000;strokeWidth=1;html=1;" parent="1" source="14" target="15" edge="1">
          <mxGeometry width="100" height="100" as="geometry">
            <mxPoint x="600" y="840" as="sourcePoint" />
            <mxPoint x="700" y="740" as="targetPoint" />
          </mxGeometry>
        </mxCell>
        <mxCell id="27" value="" style="edgeStyle=elbowEdgeStyle;elbow=vertical;exitX=0.5;exitY=0;exitPerimeter=0;entryX=0.5;entryY=1;entryPerimeter=0;fontStyle=1;strokeColor=#000000;strokeWidth=1;html=1;" parent="1" source="10" target="8" edge="1">
          <mxGeometry width="100" height="100" as="geometry">
            <mxPoint x="400" y="480" as="sourcePoint" />
            <mxPoint x="500" y="380" as="targetPoint" />
          </mxGeometry>
        </mxCell>
        <mxCell id="28" value="" style="edgeStyle=elbowEdgeStyle;elbow=vertical;exitX=0.5;exitY=0;exitPerimeter=0;entryX=0.5;entryY=1;entryPerimeter=0;fontStyle=1;strokeColor=#000000;strokeWidth=1;html=1;" parent="1" source="11" target="9" edge="1">
          <mxGeometry width="100" height="100" as="geometry">
            <mxPoint x="600" y="480" as="sourcePoint" />
            <mxPoint x="700" y="380" as="targetPoint" />
          </mxGeometry>
        </mxCell>
        <mxCell id="29" value="" style="edgeStyle=elbowEdgeStyle;elbow=vertical;exitX=0.5;exitY=0;exitPerimeter=0;entryX=0.5;entryY=1;entryPerimeter=0;fontStyle=1;strokeColor=#000000;strokeWidth=1;html=1;" parent="1" source="14" target="13" edge="1">
          <mxGeometry width="100" height="100" as="geometry">
            <mxPoint x="600" y="720" as="sourcePoint" />
            <mxPoint x="700" y="620" as="targetPoint" />
          </mxGeometry>
        </mxCell>
        <mxCell id="30" value="" style="edgeStyle=elbowEdgeStyle;elbow=horizontal;exitX=1;exitY=0.5;exitPerimeter=0;entryX=0;entryY=0.5;entryPerimeter=0;fontStyle=1;strokeColor=#000000;strokeWidth=1;html=1;" parent="1" source="7" target="8" edge="1">
          <mxGeometry width="100" height="100" as="geometry">
            <mxPoint x="260" y="420" as="sourcePoint" />
            <mxPoint x="360" y="320" as="targetPoint" />
          </mxGeometry>
        </mxCell>
        <mxCell id="31" value="" style="edgeStyle=elbowEdgeStyle;elbow=horizontal;exitX=1;exitY=0.5;exitPerimeter=0;entryX=0;entryY=0.5;entryPerimeter=0;fontStyle=1;strokeColor=#000000;strokeWidth=1;html=1;" parent="1" source="8" target="9" edge="1">
          <mxGeometry width="100" height="100" as="geometry">
            <mxPoint x="460" y="420" as="sourcePoint" />
            <mxPoint x="560" y="320" as="targetPoint" />
          </mxGeometry>
        </mxCell>
        <mxCell id="32" value="" style="edgeStyle=elbowEdgeStyle;elbow=horizontal;exitX=1;exitY=0.5;exitPerimeter=0;entryX=0;entryY=0.5;entryPerimeter=0;fontStyle=1;strokeColor=#000000;strokeWidth=1;html=1;" parent="1" source="9" target="15" edge="1">
          <mxGeometry width="100" height="100" as="geometry">
            <mxPoint x="660" y="420" as="sourcePoint" />
            <mxPoint x="760" y="320" as="targetPoint" />
            <Array as="points">
              <mxPoint x="700" y="650" />
            </Array>
          </mxGeometry>
        </mxCell>
        <mxCell id="33" value="DFD LEVEL 2 - INVENTORY AND SALES MANAGEMENT" style="text;spacingTop=-5;align=center;fontSize=20;fontStyle=1" parent="1" vertex="1">
          <mxGeometry x="160" y="40" width="480" height="40" as="geometry" />
        </mxCell>
      </root>
    </mxGraphModel>
  </diagram>
</mxfile>
